<?xml version="1.0" encoding="UTF-8"?>
<!DOCTYPE svg PUBLIC "-//W3C//DTD SVG 1.1//EN" "http://www.w3.org/Graphics/SVG/1.1/DTD/svg11.dtd">
<!-- Creator: CorelDRAW X6 -->
<svg xmlns="http://www.w3.org/2000/svg" xml:space="preserve" width="0.694488in" height="0.977744in" version="1.1" shape-rendering="geometricPrecision" text-rendering="geometricPrecision" image-rendering="optimizeQuality" fill-rule="evenodd" clip-rule="evenodd"
viewBox="0 0 69449 97774"
 xmlns:xlink="http://www.w3.org/1999/xlink">
 <g id="pcb_tht">
  <metadata id="CorelCorpID_0Corel-Layer"/>
  <g id="copper1">
   <g id="copper0">
    <circle id="connector1pin" fill="none" stroke="#F7BD13" stroke-width="1574.8" cx="7165" cy="33800" r="2165"/>
    <circle id="connector2pin" fill="none" stroke="#F7BD13" stroke-width="1574.8" cx="7165" cy="41674" r="2165"/>
    <circle id="connector3pin" fill="none" stroke="#F7BD13" stroke-width="1574.8" cx="7166" cy="49547" r="2165"/>
    <circle id="connector4pin" fill="none" stroke="#F7BD13" stroke-width="1574.8" cx="7165" cy="57422" r="2165"/>
    <circle id="connector5pin" fill="none" stroke="#F7BD13" stroke-width="1574.8" cx="7165" cy="65296" r="2165"/>
    <circle id="connector6pin" fill="none" stroke="#F7BD13" stroke-width="1574.8" cx="7165" cy="73170" r="2165"/>
    <circle id="connector7pin" fill="none" stroke="#F7BD13" stroke-width="1574.8" cx="7165" cy="81044" r="2165"/>
    <circle id="connector8pin" fill="none" stroke="#F7BD13" stroke-width="1574.8" cx="7165" cy="88918" r="2165"/>
    <circle id="connector9pin" fill="none" stroke="#F7BD13" stroke-width="1574.8" cx="15039" cy="94822" r="2165"/>
    <circle id="connector10pin" fill="none" stroke="#F7BD13" stroke-width="1574.8" cx="22913" cy="94822" r="2165"/>
    <circle id="connector11pin" fill="none" stroke="#F7BD13" stroke-width="1574.8" cx="30787" cy="94822" r="2165"/>
    <circle id="connector12pin" fill="none" stroke="#F7BD13" stroke-width="1574.8" cx="38661" cy="94822" r="2165"/>
    <circle id="connector13pin" fill="none" stroke="#F7BD13" stroke-width="1574.8" cx="46535" cy="94822" r="2165"/>
    <circle id="connector14pin" fill="none" stroke="#F7BD13" stroke-width="1574.8" cx="54409" cy="94822" r="2165"/>
    <circle id="connector15pin" fill="none" stroke="#F7BD13" stroke-width="1574.8" cx="62283" cy="88924" r="2165"/>
    <circle id="connector16pin" fill="none" stroke="#F7BD13" stroke-width="1574.8" cx="62283" cy="81050" r="2165"/>
    <circle id="connector17pin" fill="none" stroke="#F7BD13" stroke-width="1574.8" cx="62283" cy="73176" r="2165"/>
    <circle id="connector18pin" fill="none" stroke="#F7BD13" stroke-width="1574.8" cx="62283" cy="65302" r="2165"/>
    <circle id="connector19pin" fill="none" stroke="#F7BD13" stroke-width="1574.8" cx="62283" cy="57428" r="2165"/>
    <circle id="connector20pin" fill="none" stroke="#F7BD13" stroke-width="1574.8" cx="62284" cy="49553" r="2165"/>
    <circle id="connector21pin" fill="none" stroke="#F7BD13" stroke-width="1574.8" cx="62283" cy="41680" r="2165"/>
    <circle id="connector22pin" fill="none" stroke="#F7BD13" stroke-width="1574.8" cx="62283" cy="33806" r="2165"/>
   </g>
   <path fill="#F7BD13" d="M9449 81046l0 0c0,1256 -1028,2283 -2283,2283l-4882 0c-1255,0 -2283,-1028 -2283,-2283l0 0c0,-1256 1028,-2283 2283,-2283l4882 0c1256,0 2283,1028 2283,2283zm-2283 -1381c765,0 1378,619 1378,1379 0,764 -613,1378 -1378,1378 -759,0 -1378,-614 -1378,-1378 0,-760 619,-1379 1378,-1379z"/>
   <path fill="#F7BD13" d="M60000 81046l0 0c0,-1256 1028,-2283 2283,-2283l4882 0c1256,0 2283,1028 2283,2283l0 0c0,1256 -1028,2283 -2283,2283l-4882 0c-1256,0 -2283,-1028 -2283,-2283zm2283 1381c-765,0 -1378,-619 -1378,-1379 0,-764 613,-1378 1378,-1378 759,0 1378,614 1378,1378 0,760 -619,1379 -1378,1379z"/>
   <path fill="#F7BD13" d="M46535 90491l0 0c1256,0 2283,1028 2283,2283l0 2520c0,1256 -1028,2283 -2283,2283l0 0c-1256,0 -2283,-1028 -2283,-2283l0 -2520c0,-1255 1028,-2283 2283,-2283zm-1381 4331c0,-765 619,-1378 1379,-1378 764,0 1378,613 1378,1378 0,759 -614,1378 -1378,1378 -760,0 -1379,-619 -1379,-1378z"/>
   <path fill="#F7BD13" d="M9449 88920l0 0c0,1256 -1028,2283 -2283,2283l-4882 0c-1255,0 -2283,-1028 -2283,-2283l0 0c0,-1256 1028,-2283 2283,-2283l4882 0c1256,0 2283,1028 2283,2283zm-2283 -1381c765,0 1378,619 1378,1379 0,764 -613,1378 -1378,1378 -759,0 -1378,-614 -1378,-1378 0,-760 619,-1379 1378,-1379z"/>
   <path fill="#F7BD13" d="M60000 88920l0 0c0,-1256 1028,-2283 2283,-2283l4882 0c1255,0 2283,1028 2283,2283l0 0c0,1256 -1028,2283 -2283,2283l-4882 0c-1256,0 -2283,-1028 -2283,-2283zm2283 1381c-765,0 -1378,-619 -1378,-1379 0,-764 613,-1378 1378,-1378 759,0 1378,614 1378,1378 0,760 -619,1379 -1378,1379z"/>
   <path fill="#F7BD13" d="M9449 33802l0 0c0,1256 -1028,2283 -2283,2283l-4882 0c-1255,0 -2283,-1028 -2283,-2283l0 0c0,-1256 1028,-2283 2283,-2283l4882 0c1256,0 2283,1028 2283,2283zm-2283 -1381c765,0 1378,619 1378,1379 0,764 -613,1378 -1378,1378 -759,0 -1378,-614 -1378,-1378 0,-760 619,-1379 1378,-1379z"/>
   <path fill="#F7BD13" d="M60000 33802l0 0c0,-1256 1028,-2283 2283,-2283l4882 0c1255,0 2283,1028 2283,2283l0 0c0,1256 -1028,2283 -2283,2283l-4882 0c-1256,0 -2283,-1028 -2283,-2283zm2283 1381c-765,0 -1378,-619 -1378,-1379 0,-764 613,-1378 1378,-1378 759,0 1378,614 1378,1378 0,760 -619,1379 -1378,1379z"/>
   <path fill="#F7BD13" d="M9449 41676l0 0c0,1256 -1028,2283 -2283,2283l-4882 0c-1255,0 -2283,-1028 -2283,-2283l0 0c0,-1256 1028,-2283 2283,-2283l4882 0c1256,0 2283,1028 2283,2283zm-2283 -1381c765,0 1378,619 1378,1379 0,764 -613,1378 -1378,1378 -759,0 -1378,-614 -1378,-1378 0,-760 619,-1379 1378,-1379z"/>
   <path fill="#F7BD13" d="M60000 41676l0 0c0,-1256 1028,-2283 2283,-2283l4882 0c1255,0 2283,1028 2283,2283l0 0c0,1256 -1028,2283 -2283,2283l-4882 0c-1256,0 -2283,-1028 -2283,-2283zm2283 1381c-765,0 -1378,-619 -1378,-1379 0,-764 613,-1378 1378,-1378 759,0 1378,614 1378,1378 0,760 -619,1379 -1378,1379z"/>
   <path fill="#F7BD13" d="M9449 49550l0 0c0,1256 -1028,2283 -2283,2283l-4882 0c-1255,0 -2283,-1028 -2283,-2283l0 0c0,-1256 1028,-2283 2283,-2283l4882 0c1256,0 2283,1028 2283,2283zm-2283 -1381c765,0 1378,619 1378,1379 0,764 -613,1378 -1378,1378 -759,0 -1378,-614 -1378,-1378 0,-760 619,-1379 1378,-1379z"/>
   <path fill="#F7BD13" d="M60000 49550l0 0c0,-1256 1028,-2283 2283,-2283l4882 0c1255,0 2283,1028 2283,2283l0 0c0,1256 -1028,2283 -2283,2283l-4882 0c-1256,0 -2283,-1028 -2283,-2283zm2283 1381c-765,0 -1378,-619 -1378,-1379 0,-764 613,-1378 1378,-1378 759,0 1378,614 1378,1378 0,760 -619,1379 -1378,1379z"/>
   <path fill="#F7BD13" d="M9449 57424l0 0c0,1256 -1029,2283 -2283,2283l-4882 0c-1254,0 -2283,-1028 -2283,-2283l0 0c0,-1256 1028,-2283 2283,-2283l4882 0c1256,0 2283,1028 2283,2283zm-2283 -1381c765,0 1378,619 1378,1379 0,764 -613,1378 -1378,1378 -759,0 -1378,-614 -1378,-1378 0,-760 619,-1379 1378,-1379z"/>
   <path fill="#F7BD13" d="M60000 57424l0 0c0,-1256 1028,-2283 2283,-2283l4882 0c1255,0 2283,1028 2283,2283l0 0c0,1256 -1028,2283 -2283,2283l-4882 0c-1256,0 -2283,-1028 -2283,-2283zm2283 1381c-765,0 -1378,-619 -1378,-1379 0,-764 613,-1378 1378,-1378 759,0 1378,614 1378,1378 0,760 -619,1379 -1378,1379z"/>
   <path fill="#F7BD13" d="M9449 65298l0 0c0,1256 -1028,2283 -2283,2283l-4882 0c-1255,0 -2283,-1028 -2283,-2283l0 0c0,-1256 1028,-2283 2283,-2283l4882 0c1256,0 2283,1028 2283,2283zm-2283 -1381c765,0 1378,619 1378,1379 0,764 -613,1378 -1378,1378 -759,0 -1378,-614 -1378,-1378 0,-760 619,-1379 1378,-1379z"/>
   <path fill="#F7BD13" d="M60000 65298l0 0c0,-1256 1028,-2283 2283,-2283l4882 0c1255,0 2283,1028 2283,2283l0 0c0,1256 -1028,2283 -2283,2283l-4882 0c-1256,0 -2283,-1028 -2283,-2283zm2283 1381c-765,0 -1378,-619 -1378,-1379 0,-764 613,-1378 1378,-1378 759,0 1378,614 1378,1378 0,760 -619,1379 -1378,1379z"/>
   <path fill="#F7BD13" d="M9449 73172l0 0c0,1256 -1028,2283 -2283,2283l-4882 0c-1255,0 -2283,-1028 -2283,-2283l0 0c0,-1256 1028,-2283 2283,-2283l4882 0c1256,0 2283,1028 2283,2283zm-2283 -1381c765,0 1378,619 1378,1379 0,764 -613,1378 -1378,1378 -759,0 -1378,-614 -1378,-1378 0,-760 619,-1379 1378,-1379z"/>
   <path fill="#F7BD13" d="M60000 73172l0 0c0,-1256 1028,-2283 2283,-2283l4882 0c1255,0 2283,1028 2283,2283l0 0c0,1256 -1028,2283 -2283,2283l-4882 0c-1256,0 -2283,-1028 -2283,-2283zm2283 1381c-765,0 -1378,-619 -1378,-1379 0,-764 613,-1378 1378,-1378 759,0 1378,614 1378,1378 0,760 -619,1379 -1378,1379z"/>
   <path fill="#F7BD13" d="M54409 90491l0 0c1256,0 2283,1028 2283,2283l0 2520c0,1256 -1028,2283 -2283,2283l0 0c-1256,0 -2283,-1028 -2283,-2283l0 -2520c0,-1255 1028,-2283 2283,-2283zm-1381 4331c0,-765 619,-1378 1379,-1378 764,0 1378,613 1378,1378 0,759 -614,1378 -1378,1378 -760,0 -1379,-619 -1379,-1378z"/>
   <path fill="#F7BD13" d="M15039 90491l0 0c1256,0 2283,1028 2283,2283l0 2520c0,1256 -1028,2283 -2283,2283l0 0c-1256,0 -2283,-1028 -2283,-2283l0 -2520c0,-1255 1028,-2283 2283,-2283zm-1381 4331c0,-765 619,-1378 1379,-1378 764,0 1378,613 1378,1378 0,759 -614,1378 -1378,1378 -760,0 -1379,-619 -1379,-1378z"/>
   <path fill="#F7BD13" d="M22913 90491l0 0c1256,0 2283,1028 2283,2283l0 2520c0,1256 -1028,2283 -2283,2283l0 0c-1256,0 -2283,-1028 -2283,-2283l0 -2520c0,-1255 1028,-2283 2283,-2283zm-1381 4331c0,-765 619,-1378 1379,-1378 764,0 1378,613 1378,1378 0,759 -614,1378 -1378,1378 -760,0 -1379,-619 -1379,-1378z"/>
   <path fill="#F7BD13" d="M30787 90491l0 0c1256,0 2283,1028 2283,2283l0 2520c0,1256 -1028,2283 -2283,2283l0 0c-1256,0 -2283,-1028 -2283,-2283l0 -2520c0,-1255 1028,-2283 2283,-2283zm-1381 4331c0,-765 619,-1378 1379,-1378 764,0 1378,613 1378,1378 0,759 -614,1378 -1378,1378 -760,0 -1379,-619 -1379,-1378z"/>
   <path fill="#F7BD13" d="M38661 90491l0 0c1256,0 2283,1028 2283,2283l0 2520c0,1256 -1028,2283 -2283,2283l0 0c-1256,0 -2283,-1028 -2283,-2283l0 -2520c0,-1255 1028,-2283 2283,-2283zm-1381 4331c0,-765 619,-1378 1379,-1378 764,0 1378,613 1378,1378 0,759 -614,1378 -1378,1378 -760,0 -1379,-619 -1379,-1378z"/>
  </g>
  <g id="silkscreen">
   <rect fill="none" stroke="#373435" stroke-width="666.535" transform="matrix(1.99643E-014 0.753809 -0.771988 2.04458E-014 66220.6 333.316)" width="125348" height="81597"/>
   <line fill="none" stroke="#373435" stroke-width="300" x1="3228" y1="27893" x2="66220" y2= "27893" />
   <line fill="none" stroke="#373435" stroke-width="300" x1="3228" y1="8207" x2="66220" y2= "8207" />
   <text x="21423" y="16347"  fill="#373435" font-weight="normal" font-size="6250" font-family="Droid Sans">KEEPOUT</text>
   <text x="17448" y="55253"  fill="#373435" font-weight="500" font-size="6944.49" font-family="OCRA">ESP-12E</text>
  </g>
 </g>
</svg>
