<?xml version="1.0" encoding="UTF-8"?>
<!DOCTYPE svg PUBLIC "-//W3C//DTD SVG 1.1//EN" "http://www.w3.org/Graphics/SVG/1.1/DTD/svg11.dtd">
<!-- Creator: CorelDRAW X6 -->
<svg xmlns="http://www.w3.org/2000/svg" xml:space="preserve" width="0.629925in" height="0.944882in" version="1.1" shape-rendering="geometricPrecision" text-rendering="geometricPrecision" image-rendering="optimizeQuality" fill-rule="evenodd" clip-rule="evenodd"
viewBox="0 0 66154 99231"
 xmlns:xlink="http://www.w3.org/1999/xlink">
 <g id="breadboard">
  <metadata id="CorelCorpID_0Corel-Layer"/>
  <polygon fill="#373435" fill-rule="nonzero" points="0,99231 66154,99231 66154,0 0,0 "/>
  <path fill="#FFF39D" d="M13026 2195l220 0 221 0 4075 0 328 0 113 0c486,0 882,397 882,882l0 15263 2310 0 0 -15263c0,-485 396,-882 882,-882l220 0 221 0 4075 0 328 0 113 0c486,0 882,397 882,882l0 15263 2310 0 0 -15263c0,-485 396,-882 882,-882l220 0 221 0 4075 0 328 0 113 0c486,0 882,397 882,882l0 15263 2310 0 0 -15263c0,-485 396,-882 882,-882l441 0c28,0 56,1 83,4 26,-2 53,-4 79,-4l16141 0c462,0 841,378 841,840l0 553c0,462 -379,840 -841,840l-15421 0 0 15263c0,485 -397,882 -882,882l-113 0 -328 0 -4075 0 -221 0 -220 0c-486,0 -882,-397 -882,-882l0 -15263 -2310 0 0 15263c0,485 -397,882 -882,882l-113 0 -328 0 -4075 0 -221 0 -220 0c-486,0 -882,-397 -882,-882l0 -15263 -2310 0 0 15263c0,485 -397,882 -882,882l-113 0 -328 0 -4075 0 -221 0 -220 0c-486,0 -882,-397 -882,-882l0 -15263 -2310 0 0 21515 26631 0c463,0 840,378 840,840l0 553c0,462 -377,840 -840,840l-26631 0 0 2460 -2205 0 0 -27561c0,-485 396,-882 882,-882z"/>
  <g id="chip-led0805_3_">
   <line id="_0.1.11.0.0.0.0.0.0" fill="none" x1="61802" y1="23303" x2="53586" y2= "23303"  gorn="0.2.11.0.0.0.0.0.0.0.0.0.0.0.0.0.0.0"/>
   <rect id="_0.1.11.0.0.0.0.0.1.0" fill="#F2F2F2" x="53455" y="23297" width="8344" height="4353" gorn="0.2.11.0.0.0.0.0.0.0.0.0.0.0.0.0.0.1.0.0.0.0"/>
   <path id="_0.1.11.0.0.0.0.0.2" fill="#22B573" fill-opacity="0.701961" d="M56409 23296c0,0 -732,530 -984,484 -249,-47 -615,168 -768,0l20 -482 1732 -2z" gorn="0.2.11.0.0.0.0.0.0.0.0.0.0.0.0.0.0.2"/>
   <rect id="_0.1.11.0.0.0.0.0.3.0.0" fill="white" x="57222" y="24963" width="970" height="1091" gorn="0.2.11.0.0.0.0.0.0.0.0.0.0.0.0.0.0.3.0.0.0.0.0"/>
   <rect id="_0.1.11.0.0.0.0.0.3.1.0" fill="#B3B3B3" x="57222" y="24933" width="970" height="56" gorn="0.2.11.0.0.0.0.0.0.0.0.0.0.0.0.0.0.3.1.0.0.0.0"/>
   <polygon id="_0.1.11.0.0.0.0.0.4.0" fill="#D1C690" points="55750,23780 54657,23662 54657,24492 55750,24374 " gorn="0.2.11.0.0.0.0.0.0.0.0.0.0.0.0.0.0.4.0"/>
   <path id="_0.1.11.0.0.0.0.0.4.1.0" fill="#D1C690" d="M55681 24004c2,0 5,0 9,0 302,39 507,118 679,184 237,91 635,888 940,790 31,-13 68,13 75,49 9,40 -12,77 -45,88 -346,108 -765,-701 -1014,-796 -168,-68 -361,-140 -650,-176 -33,-5 -62,-38 -56,-77 3,-33 29,-62 60,-62z" gorn="0.2.11.0.0.0.0.0.0.0.0.0.0.0.0.0.0.4.1.0"/>
   <polygon id="_0.1.11.0.0.0.0.0.4.2" fill="#D1C690" points="59634,27057 60730,27174 60730,26345 59634,26462 " gorn="0.2.11.0.0.0.0.0.0.0.0.0.0.0.0.0.0.4.2"/>
   <path id="_0.1.11.0.0.0.0.0.4.3.0" fill="#D1C690" d="M57756 25330c28,0 55,23 62,53 71,332 1235,1308 2140,1308 37,0 65,30 65,72 -2,38 -29,72 -65,72l-2 0c-850,0 -2147,-874 -2263,-1414 -9,-39 14,-77 47,-88 6,-2 10,-2 16,-2z" gorn="0.2.11.0.0.0.0.0.0.0.0.0.0.0.0.0.0.4.3.0"/>
   <path id="_0.1.11.0.0.0.0.0.4.4" fill="#D1C690" d="M57223 25314c0,0 404,2 435,-353 -80,0 -435,0 -435,0l0 353z" gorn="0.2.11.0.0.0.0.0.0.0.0.0.0.0.0.0.0.4.4"/>
   <path id="_0.1.11.0.0.0.0.0.4.5" fill="#D1C690" d="M57717 25677c0,0 -179,-347 -60,-399 122,-55 202,-59 273,32 69,93 -213,367 -213,367z" gorn="0.2.11.0.0.0.0.0.0.0.0.0.0.0.0.0.0.4.5"/>
   <path id="_0.1.11.0.0.0.0.0.4.6" fill="#9D956C" d="M57309 24918c-306,95 -703,-702 -940,-793 -165,-68 -375,-144 -679,-184l0 67c302,39 507,118 679,184 237,91 635,888 940,790l0 -64z" gorn="0.2.11.0.0.0.0.0.0.0.0.0.0.0.0.0.0.4.6"/>
   <polygon id="_0.1.11.0.0.0.0.0.4.7" fill="#9D956C" points="59634,26402 60730,26284 60730,26345 59634,26462 " gorn="0.2.11.0.0.0.0.0.0.0.0.0.0.0.0.0.0.4.7"/>
   <path id="_0.1.11.0.0.0.0.0.4.8" fill="#9D956C" d="M57821 25321c70,331 1215,1376 2140,1305l0 68c-996,68 -2074,-977 -2143,-1308l2 -65z" gorn="0.2.11.0.0.0.0.0.0.0.0.0.0.0.0.0.0.4.8"/>
   <path id="_0.1.11.0.0.0.0.0.4.9" fill="#9D956C" d="M57658 24897c-79,0 -432,0 -432,0l0 65c0,0 353,0 433,0l0 -65z" gorn="0.2.11.0.0.0.0.0.0.0.0.0.0.0.0.0.0.4.9"/>
   <path id="_0.1.11.0.0.0.0.0.4.10" fill="#9D956C" d="M57930 25251c-72,-91 -149,-86 -270,-35l-2 68c121,-56 203,-59 272,32l0 -65z" gorn="0.2.11.0.0.0.0.0.0.0.0.0.0.0.0.0.0.4.10"/>
   <polygon id="_0.1.11.0.0.0.0.0.5.0" fill="white" fill-opacity="0.501961" points="60120,27594 55325,27594 55325,27651 60120,27651 " gorn="0.2.11.0.0.0.0.0.0.0.0.0.0.0.0.0.0.5.0.0.0.0" enable-background="new    "/>
   <polygon id="_0.1.11.0.0.0.0.0.6" fill="#F2F2F2" fill-opacity="0.501961" points="60711,27649 60711,23299 54674,23299 54669,27649 " gorn="0.2.11.0.0.0.0.0.0.0.0.0.0.0.0.0.0.6" enable-background="new    "/>
   <path id="_0.1.11.0.0.0.0.0.7" fill="white" fill-opacity="0.549020" d="M60653 26910l0 308c-20,172 14,308 -111,308 -694,0 -5340,0 -5512,0 -191,0 -200,-74 13,-74 149,0 4421,0 4935,0 519,0 588,-119 588,-224l-2 -309c1,-206 89,-206 89,-9z" gorn="0.2.11.0.0.0.0.0.0.0.0.0.0.0.0.0.0.7" enable-background="new    "/>
   <path id="_0.1.11.0.0.0.0.0.8" fill="black" fill-opacity="0.031373" d="M54831 23551c0,-77 -13,-157 112,-157 693,0 5299,0 5470,0 191,0 200,74 -9,74 -153,0 -3563,2 -4075,2 -676,1 -1497,81 -1497,81z" gorn="0.2.11.0.0.0.0.0.0.0.0.0.0.0.0.0.0.8" enable-background="new    "/>
   <path id="_0.1.11.0.0.0.0.0.9" fill="#D1C690" d="M61799 23296l-876 0 0 592c0,142 -91,242 -213,304l0 3460 1147 0 0 -4297 0 -57m-58 -2l0 0 0 0z" gorn="0.2.11.0.0.0.0.0.0.0.0.0.0.0.0.0.0.9"/>
   <polygon id="_0.1.11.0.0.0.0.0.10.0" fill="white" fill-opacity="0.501961" points="61855,27594 60713,27594 60713,27653 61855,27653 " gorn="0.2.11.0.0.0.0.0.0.0.0.0.0.0.0.0.0.10.0.0.0.0" enable-background="new    "/>
   <path id="_0.1.11.0.0.0.0.0.11" fill="#D1C690" d="M53456 23296l0 56 0 4297 1217 0 0 -3934c-119,-64 -217,-166 -217,-308l0 -114 -942 0m-58 2l0 0 0 0z" gorn="0.2.11.0.0.0.0.0.0.0.0.0.0.0.0.0.0.11"/>
   <polygon id="_0.1.11.0.0.0.0.0.12.0" fill="white" fill-opacity="0.501961" points="54674,27592 53456,27592 53456,27651 54674,27651 " gorn="0.2.11.0.0.0.0.0.0.0.0.0.0.0.0.0.0.12.0.0.0.0" enable-background="new    "/>
  </g>
  <g id="esp8266-chip">
   <polygon fill="#606062" fill-rule="nonzero" stroke="#FEFEFE" stroke-width="1050.19" points="7919,94086 58234,94086 58234,30637 7919,30637 "/>
   <g>
    <polygon fill="#E6E7E8" fill-rule="nonzero" points="36294,61620 37143,61620 37143,63136 37826,63136 37826,61620 38555,61620 38555,63240 39245,63240 39245,60972 35609,60972 35609,63302 36294,63302 "/>
    <path fill="#E6E7E8" fill-rule="nonzero" d="M36106 66202c182,103 380,153 597,153 216,0 411,-51 569,-147 166,-98 297,-245 394,-439 57,-114 125,-302 206,-598 91,-325 159,-434 192,-468 98,-102 337,-108 456,35 69,86 102,210 102,377 0,165 -39,284 -120,370 -79,84 -209,136 -386,147l-149 17 57 633 137 -5c228,-6 428,-57 598,-155 177,-96 313,-239 404,-416 92,-170 137,-376 137,-598 0,-337 -96,-609 -296,-815 -206,-198 -461,-302 -769,-302 -172,0 -331,35 -474,108 -136,68 -255,172 -341,297 -91,124 -171,318 -257,598 -102,341 -159,484 -188,535 -34,63 -73,108 -126,143 -51,28 -114,45 -182,45 -130,0 -227,-45 -302,-131 -79,-92 -125,-227 -125,-404 0,-131 29,-245 80,-343 51,-90 113,-165 199,-215 81,-57 205,-92 365,-104l148 -16 -67 -622 -137 6c-388,6 -696,125 -924,354 -234,227 -347,535 -347,912 0,239 45,451 136,627 92,176 235,319 411,421z"/>
    <path fill="#E6E7E8" fill-rule="nonzero" d="M37307 69170c216,171 496,263 826,263 257,0 474,-51 656,-161 182,-113 313,-267 381,-454 51,-132 74,-325 74,-588l0 -1179 -3635 0 0 655 1361 0 0 559c0,421 115,724 337,906zm1247 -1464l0 559c0,221 -22,302 -34,325 -23,46 -68,85 -131,120 -74,39 -165,57 -273,57 -160,0 -280,-35 -354,-109 -73,-73 -108,-204 -108,-386l0 -565 900 0z"/>
    <path fill="#E6E7E8" fill-rule="nonzero" d="M36710 72054c245,0 449,-53 616,-155 102,-62 188,-137 255,-228 53,57 110,108 172,148 136,80 296,119 485,119 296,0 541,-85 729,-261 193,-182 290,-406 290,-672 0,-269 -98,-496 -284,-673 -188,-170 -427,-262 -719,-262 -198,0 -365,41 -500,119 -62,41 -119,92 -166,143 -62,-86 -141,-155 -233,-212 -165,-108 -382,-159 -632,-159 -342,0 -621,96 -839,291 -216,205 -330,456 -330,758 0,296 108,547 330,745 217,194 490,298 827,298zm399 -770c-103,92 -234,131 -399,131 -171,0 -296,-39 -394,-125 -90,-81 -137,-165 -137,-279 0,-114 47,-205 143,-286 98,-91 227,-130 399,-130 159,0 291,39 387,124 92,80 136,172 136,280 0,108 -45,206 -136,284zm1156 -580c108,0 194,27 268,90 63,62 96,125 96,205 0,85 -33,148 -103,210 -142,120 -415,131 -559,0 -62,-57 -96,-125 -96,-204 0,-86 33,-149 96,-212 69,-57 171,-90 296,-90z"/>
    <path fill="#E6E7E8" fill-rule="nonzero" d="M37792 73877c-159,-91 -394,-291 -695,-593 -279,-279 -524,-473 -740,-581 -205,-108 -406,-160 -604,-160l-143 0 0 2103 685 0 0 -1225c73,57 210,182 398,370 331,320 604,541 810,661 466,268 1013,251 1412,-57 229,-171 342,-427 342,-753 0,-296 -98,-541 -284,-729 -188,-177 -462,-284 -815,-308l-143 -10 -79 643 165 0c177,0 314,39 404,119 81,69 120,155 120,274 0,102 -33,187 -108,261 -159,137 -416,161 -724,-16z"/>
    <path fill="#E6E7E8" fill-rule="nonzero" d="M36174 77153c193,84 422,130 667,130 359,0 661,-91 877,-273 233,-188 347,-416 347,-684 0,-153 -45,-308 -135,-449 -6,-12 -18,-29 -29,-41 182,24 331,63 444,114 279,137 279,291 279,343 0,79 -33,147 -108,209 -28,29 -102,75 -296,110l-131 22 62 615 143 -18c308,-27 541,-131 706,-296 165,-165 256,-376 256,-626 0,-337 -160,-616 -478,-827 -302,-200 -776,-296 -1459,-296 -622,0 -1060,96 -1333,296 -291,206 -433,473 -433,803 0,182 51,348 153,502 103,147 263,273 468,365zm1099 -627c-102,80 -255,125 -461,125 -205,0 -370,-45 -479,-131 -154,-108 -154,-205 -154,-234 0,-108 58,-199 166,-284 120,-92 279,-138 496,-138 188,0 330,40 432,126 98,84 143,170 143,272 0,104 -45,189 -143,263z"/>
    <path fill="#E6E7E8" fill-rule="nonzero" d="M36174 79774c193,85 422,130 667,130 359,0 661,-91 877,-273 233,-188 347,-416 347,-684 0,-153 -45,-308 -135,-450 -6,-11 -18,-29 -29,-40 182,23 331,62 444,113 279,137 279,291 279,343 0,79 -33,147 -108,210 -28,29 -102,74 -296,108l-131 24 62 615 149 -18c302,-33 541,-131 700,-296 170,-165 256,-382 256,-627 0,-336 -160,-614 -472,-826 -302,-205 -782,-296 -1464,-296 -616,0 -1055,91 -1333,291 -286,211 -433,478 -433,803 0,182 51,353 153,507 103,148 263,273 468,365zm1099 -627c-102,80 -255,126 -461,126 -205,0 -370,-46 -479,-132 -154,-108 -154,-205 -154,-233 0,-108 58,-200 166,-286 120,-91 279,-136 496,-136 188,0 330,39 432,125 98,84 143,170 143,273 0,102 -45,182 -143,262z"/>
    <polygon fill="#E6E7E8" fill-rule="nonzero" points="39245,81045 39660,80925 39245,80925 39245,80577 35609,80577 35609,81216 37529,81216 35609,81751 35609,82298 37508,82845 35609,82845 35609,83482 39245,83482 39245,83135 39592,83135 39245,83039 39245,82743 36812,82053 36800,82047 39245,81375 "/>
    <path fill="#E6E7E8" fill-rule="nonzero" d="M37382 84166c-479,0 -896,120 -1237,359 -393,274 -592,645 -592,1094 0,451 194,821 574,1094 337,239 770,365 1300,365 377,0 706,-62 992,-188 278,-125 500,-302 655,-518 148,-227 228,-473 228,-747 0,-421 -171,-769 -512,-1049 -331,-273 -803,-410 -1407,-410zm50 2245c-404,0 -717,-79 -923,-239 -194,-147 -284,-329 -284,-553 0,-216 90,-392 284,-547 200,-159 490,-245 867,-245 443,0 769,86 968,239 194,149 285,331 285,559 0,143 -40,268 -126,388 -90,119 -209,210 -353,273 -210,86 -451,125 -718,125z"/>
    <path fill="#E6E7E8" fill-rule="nonzero" d="M35609 88867c0,308 63,565 189,757 126,200 335,360 626,484 280,120 627,178 1021,178 308,0 575,-35 808,-104 229,-74 428,-170 583,-302 165,-131 272,-296 335,-478 47,-143 74,-330 74,-581l0 -1088 -3635 0 0 1133zm2946 -484l0 434c0,233 -28,347 -52,398 -50,113 -153,206 -319,284 -177,80 -422,125 -734,125 -298,0 -553,-45 -764,-125 -137,-52 -239,-124 -296,-216 -62,-96 -91,-257 -91,-461l0 -439 2255 0z"/>
    <path fill="#E6E7E8" fill-rule="nonzero" d="M33644 61758l-3635 -1151 0 690 1008 302 0 933 -1008 320 0 724 3533 -1185 103 -35 0 -273 245 -57 -245 -41 0 -227zm-1236 342l-735 229 0 -537 792 245c22,12 51,18 79,24 -45,17 -90,29 -136,39z"/>
    <polygon fill="#E6E7E8" fill-rule="nonzero" points="30009,65108 33644,65108 33644,64459 30009,64459 "/>
    <polygon fill="#E6E7E8" fill-rule="nonzero" points="31012,67472 31718,67472 31718,66151 31012,66151 "/>
    <polygon fill="#E6E7E8" fill-rule="nonzero" points="32955,69176 30009,69176 30009,69825 32955,69825 32955,70731 33644,70731 33644,68271 32955,68271 "/>
    <polygon fill="#E6E7E8" fill-rule="nonzero" points="30009,72333 31587,72333 31587,73466 30009,73466 30009,74122 33644,74122 33644,73466 32272,73466 32272,72333 33644,72333 33644,71683 30009,71683 "/>
    <polygon fill="#E6E7E8" fill-rule="nonzero" points="30009,76042 33644,76042 33644,75387 30009,75387 "/>
    <polygon fill="#E6E7E8" fill-rule="nonzero" points="30009,77883 32214,77883 30009,79091 30009,79694 33644,79694 33644,79055 31438,79055 33644,77847 33644,77244 30009,77244 "/>
    <polygon fill="#E6E7E8" fill-rule="nonzero" points="30009,81529 31262,81529 31593,81813 30009,82725 30009,83545 32128,82269 33644,83551 33644,82680 32248,81529 33644,81529 33644,80878 30009,80878 "/>
    <polygon fill="#E6E7E8" fill-rule="nonzero" points="30009,86656 30699,86656 30699,84975 31542,84975 31542,86491 32226,86491 32226,84975 32955,84975 32955,86593 33644,86593 33644,84327 30009,84327 "/>
    <path fill="#E6E7E8" fill-rule="nonzero" d="M30009 88395l1488 0 0 273c0,119 -23,188 -40,217 -12,33 -52,84 -148,159 -53,39 -188,131 -526,308l-774 404 0 786 1123 -592c165,-86 313,-188 455,-302 12,-12 18,-18 29,-28 62,148 153,273 267,369 182,154 421,229 707,229 216,0 411,-41 569,-132 170,-92 296,-211 376,-358 74,-143 108,-349 108,-633l0 -1356 -3629 0 0 656 -6 0zm2969 0l0 717c0,153 -28,267 -96,335 -69,75 -166,110 -296,110 -91,0 -166,-23 -234,-62 -62,-35 -108,-81 -136,-143 -24,-45 -47,-143 -47,-325l0 -637 810 0 0 6z"/>
    <polygon fill="#E6E7E8" fill-rule="nonzero" points="24408,61684 28043,61684 28043,61029 24408,61029 "/>
    <path fill="#E6E7E8" fill-rule="nonzero" d="M24909 64687c177,102 377,153 592,153 223,0 410,-50 576,-147 159,-98 290,-245 387,-440 57,-113 125,-302 205,-598 91,-325 159,-433 194,-468 96,-102 329,-108 449,35 68,85 110,210 110,377 0,165 -41,284 -120,370 -80,85 -211,135 -388,147l-149 17 57 632 137 -5c223,-6 427,-58 597,-154 177,-96 308,-239 406,-416 91,-170 136,-376 136,-597 0,-337 -102,-609 -302,-815 -198,-200 -455,-302 -763,-302 -170,0 -331,35 -472,108 -137,68 -257,172 -349,296 -85,125 -171,319 -249,599 -104,347 -160,485 -188,535 -36,63 -74,108 -125,142 -51,29 -114,46 -182,46 -131,0 -229,-46 -302,-131 -81,-92 -120,-227 -120,-404 0,-131 22,-245 73,-342 53,-91 115,-165 194,-216 86,-57 212,-93 365,-104l149 -16 -69 -621 -131 6c-388,6 -700,126 -929,353 -227,227 -347,535 -347,912 0,239 45,451 143,627 90,177 233,318 416,422z"/>
    <polygon fill="#E6E7E8" fill-rule="nonzero" points="28043,65969 28460,65849 28043,65849 28043,65501 24408,65501 24408,66139 26333,66139 24408,66675 24408,67222 26311,67768 24408,67768 24408,68407 28043,68407 28043,68059 28391,68059 28043,67962 28043,67667 25610,66977 25599,66971 28043,66304 "/>
    <path fill="#E6E7E8" fill-rule="nonzero" d="M26590 76981c-159,-91 -392,-291 -694,-592 -280,-278 -531,-472 -741,-580 -212,-108 -404,-160 -604,-160l-143 0 0 2103 684 0 0 -1226c75,57 205,182 398,370 331,320 604,541 810,661 467,268 1014,251 1414,-57 227,-170 342,-427 342,-753 0,-296 -96,-541 -285,-729 -188,-177 -462,-279 -815,-308l-141 -10 -80 643 165 0c182,0 313,39 405,120 85,68 120,153 120,273 0,103 -35,188 -110,263 -153,137 -416,160 -724,-18z"/>
    <polygon fill="#E6E7E8" fill-rule="nonzero" points="24408,79153 25167,79153 25167,78481 24408,78481 "/>
    <path fill="#E6E7E8" fill-rule="nonzero" d="M25878 81888l0 -371 2164 0 0 -507 -2238 -1294 -34 -16 -565 0 0 1184 -798 0 0 627 798 0 0 377 673 0zm0 -1004l0 -455 810 455 -810 0z"/>
    <path fill="#E6E7E8" fill-rule="nonzero" d="M27223 82657c-284,-132 -633,-194 -1014,-194 -376,0 -713,62 -986,194 -280,136 -496,319 -651,553 -147,233 -222,502 -222,798 0,216 51,433 149,643 91,205 233,400 416,593l40 46 1452 0 0 -1453 -688 0 0 802 -417 0c-62,-67 -119,-159 -171,-273 -63,-131 -90,-256 -90,-376 0,-257 90,-455 284,-621 194,-159 502,-245 912,-245 268,0 501,41 690,120 176,80 302,178 380,297 86,120 125,261 125,432 0,115 -22,217 -67,302 -41,92 -98,160 -172,211 -79,57 -204,102 -370,143l-159 39 206 598 125 -28c261,-53 461,-131 614,-239 160,-115 286,-256 364,-428 86,-172 126,-370 126,-594 0,-296 -67,-563 -210,-780 -149,-222 -370,-405 -667,-541z"/>
    <path fill="#E6E7E8" fill-rule="nonzero" d="M24408 86571l1470 0c325,0 461,63 523,120 86,73 125,153 125,261 0,86 -22,149 -79,194 -63,51 -194,81 -365,81l-1682 0 0 627 1682 0c404,0 677,-74 837,-223 171,-147 251,-353 251,-610 0,-141 -35,-279 -104,-398 -10,-17 -16,-35 -28,-51l996 0 0 -627 -3635 0 0 627 6 0z"/>
    <path fill="#E6E7E8" fill-rule="nonzero" d="M26500 89397l0 92 -1567 -1123 -525 0 0 2045 645 0 0 -1059c0,-39 0,-81 0,-120l1567 1100 39 27 462 0 0 -1914 -627 0 0 951 6 0z"/>
    <path fill="#E6E7E8" fill-rule="nonzero" d="M20163 62167c0,422 114,729 341,912 212,171 490,263 827,263 257,0 473,-50 649,-159 188,-115 313,-268 388,-456 45,-131 69,-325 69,-586l0 -1180 -3631 0 0 655 1357 0 0 553zm1589 -553l0 553c0,228 -29,308 -39,332 -17,39 -63,84 -131,120 -68,39 -166,56 -268,56 -165,0 -284,-35 -354,-108 -74,-74 -113,-211 -113,-394l0 -559 905 0z"/>
    <path fill="#E6E7E8" fill-rule="nonzero" d="M22443 65097l0 -273 244 -58 -244 -45 0 -222 -3636 -1151 0 688 1010 302 0 935 -1010 319 0 724 3533 -1186 103 -33zm-1237 -257l-735 228 0 -535 792 245c24,6 52,17 75,23 -41,12 -86,28 -131,39z"/>
    <polygon fill="#E6E7E8" fill-rule="nonzero" points="20938,75825 20938,75079 21844,75079 21844,74470 20938,74470 20938,73723 20260,73723 20260,74470 19348,74470 19348,75079 20260,75079 20260,75825 "/>
    <path fill="#E6E7E8" fill-rule="nonzero" d="M19491 77210c74,57 205,182 399,370 330,318 604,541 808,661 468,267 1015,251 1413,-57 228,-177 341,-428 341,-753 0,-296 -96,-541 -284,-729 -188,-177 -461,-284 -815,-314l-141 -6 -80 645 165 0c182,0 314,39 406,119 84,69 119,153 119,272 0,104 -35,189 -114,263 -149,138 -411,159 -724,-17 -155,-90 -388,-290 -696,-592 -274,-279 -523,-472 -735,-581 -210,-110 -404,-167 -604,-167l-149 6 0 2097 690 0 0 -1219z"/>
    <path fill="#E6E7E8" fill-rule="nonzero" d="M20083 81067c370,0 667,-90 890,-284 227,-200 342,-439 342,-706 0,-115 -24,-224 -63,-325l462 74 0 1116 683 0 0 -1629 -1983 -308 -92 564 92 45c81,39 143,98 182,160 39,67 63,136 63,210 0,125 -45,222 -149,308 -102,91 -255,137 -454,137 -224,0 -394,-51 -514,-149 -113,-85 -165,-182 -165,-296 0,-86 34,-159 108,-227 86,-75 217,-126 399,-149l136 -16 -63 -639 -141 12c-325,22 -588,132 -776,320 -193,193 -291,428 -291,706 0,331 137,598 411,798 255,189 569,279 922,279z"/>
    <path fill="#E6E7E8" fill-rule="nonzero" d="M18869 82941l-62 0 0 604 3631 0 0 -632 -980 0c0,-6 6,-6 6,-17 73,-114 108,-245 108,-382 0,-187 -56,-354 -164,-506 -110,-155 -274,-268 -490,-353 -211,-86 -463,-125 -753,-125 -433,0 -774,96 -1025,284 -257,200 -388,445 -388,724 0,143 41,274 114,394 5,0 5,5 5,10zm1294 -774c284,0 496,39 621,125 159,108 159,211 159,245 0,69 -18,170 -165,274 -137,91 -358,136 -667,136 -262,0 -456,-45 -576,-131 -102,-79 -159,-159 -159,-255 0,-92 57,-177 165,-263 132,-86 337,-131 622,-131z"/>
    <path fill="#E6E7E8" fill-rule="nonzero" d="M18807 85472c0,267 41,472 119,631 80,166 212,302 394,400 177,90 377,137 604,137 228,0 433,-53 592,-160 98,-64 176,-138 239,-228 62,51 126,102 205,143 291,165 700,159 1002,-17 161,-92 286,-212 365,-358 75,-143 115,-332 115,-559l0 -1180 -3636 0 0 1192zm2229 -536l717 0 0 404c0,234 -23,325 -34,359 -16,45 -51,86 -102,114 -114,68 -354,63 -449,-6 -53,-27 -86,-74 -110,-141 -11,-29 -22,-109 -22,-286l0 -444zm-684 0l0 490c0,205 -29,302 -51,348 -30,63 -69,108 -131,147 -137,80 -388,74 -514,-6 -62,-34 -108,-91 -136,-165 -11,-34 -29,-108 -29,-279l0 -536 860 0z"/>
    <polygon fill="#E6E7E8" fill-rule="nonzero" points="22443,87768 22859,87653 22443,87653 22443,87307 18807,87307 18807,87944 20728,87944 18807,88479 18807,89026 20705,89573 18807,89573 18807,90212 22443,90212 22443,89864 22790,89864 22443,89762 22443,89465 20010,88781 19999,88776 22443,88103 "/>
    <path fill="#E6E7E8" fill-rule="nonzero" d="M14305 62914c239,0 451,-51 616,-155 104,-62 182,-136 251,-228 51,57 114,108 176,149 137,79 296,120 485,120 296,0 535,-93 729,-263 194,-182 291,-404 291,-678 0,-261 -96,-490 -284,-667 -189,-176 -428,-261 -718,-261 -200,0 -365,40 -502,120 -62,39 -119,85 -165,141 -63,-84 -143,-153 -233,-210 -171,-110 -382,-167 -633,-167 -342,0 -626,104 -837,297 -222,198 -331,455 -331,757 0,290 109,547 331,747 211,194 490,296 825,296zm394 -769c-96,91 -227,130 -399,130 -165,0 -296,-39 -387,-125 -98,-79 -137,-171 -137,-284 0,-108 45,-200 143,-279 96,-92 227,-131 392,-131 167,0 296,39 394,125 91,80 131,165 131,279 6,114 -41,206 -137,286zm867 -485c69,-62 170,-97 296,-97 108,0 194,35 261,97 69,57 98,120 98,198 0,86 -29,149 -98,212 -142,125 -422,131 -557,5 -62,-62 -98,-125 -98,-211 0,-80 29,-148 98,-205z"/>
    <path fill="#E6E7E8" fill-rule="nonzero" d="M13662 65740c313,167 753,245 1339,245 649,0 1122,-96 1429,-296 280,-182 422,-428 422,-741 0,-353 -177,-620 -512,-796 -308,-167 -758,-245 -1339,-245 -661,0 -1123,91 -1402,273 -302,194 -451,456 -451,764 0,347 178,626 514,796zm1339 -392c-639,0 -906,-74 -1019,-137 -182,-103 -206,-194 -206,-257 0,-69 24,-170 206,-273 108,-63 376,-143 1019,-143 638,0 906,74 1014,137 205,114 205,222 205,257 0,69 -17,176 -199,279 -108,63 -382,137 -1020,137z"/>
    <path fill="#E6E7E8" fill-rule="nonzero" d="M16562 67329c-182,-176 -455,-279 -808,-308l-143 -10 -80 643 166 0c182,0 313,39 404,120 85,68 120,153 120,273 0,103 -35,188 -114,263 -155,143 -410,160 -724,-18 -154,-91 -388,-291 -695,-592 -273,-278 -524,-473 -735,-581 -210,-108 -404,-160 -604,-160l-147 0 0 2103 688 0 0 -1226c75,57 206,182 394,370 329,320 603,541 814,661 468,268 1009,251 1414,-57 227,-170 341,-427 341,-753 0,-296 -96,-541 -291,-729z"/>
    <polygon fill="#E6E7E8" fill-rule="nonzero" points="13206,70960 13964,70960 13964,70282 13206,70282 "/>
    <path fill="#E6E7E8" fill-rule="nonzero" d="M16852 73199l-91 -36c-125,-50 -268,-141 -404,-267 -143,-131 -263,-286 -365,-463l-41 -68 -700 0 85 200c53,119 126,245 235,394 16,28 39,51 63,79l-2428 0 0 627 3646 0 0 -466z"/>
    <path fill="#E6E7E8" fill-rule="nonzero" d="M16852 76007l-91 -34c-125,-45 -268,-143 -404,-268 -143,-130 -263,-284 -365,-455l-41 -74 -700 0 85 206c53,113 126,239 235,386 16,29 39,53 63,80l-2428 0 0 627 3646 0 0 -468z"/>
    <path fill="#E6E7E8" fill-rule="nonzero" d="M16842 78093l-3636 0 0 603 68 0c-6,6 -6,12 -10,18 -74,114 -115,245 -115,388 0,279 131,518 394,718 251,194 598,290 1037,290 285,0 536,-39 741,-125 216,-91 376,-206 484,-353 113,-155 170,-326 170,-514 0,-136 -35,-261 -102,-376l-12 -22 980 0 0 -627zm-2997 809c51,-63 125,-114 221,-149 110,-39 280,-63 514,-63 263,0 461,47 592,137 170,120 170,222 170,257 0,62 -16,159 -159,263 -120,85 -331,124 -615,124 -279,0 -485,-45 -616,-130 -171,-119 -171,-217 -171,-251 0,-69 18,-132 63,-189z"/>
    <polygon fill="#E6E7E8" fill-rule="nonzero" points="13149,81472 16899,82331 16899,81763 13149,80902 "/>
    <path fill="#E6E7E8" fill-rule="nonzero" d="M15918 85119l0 -600 -74 0c6,-16 18,-28 24,-39 68,-120 108,-251 108,-393 0,-188 -57,-365 -165,-519 -110,-148 -274,-273 -496,-359 -212,-92 -451,-131 -736,-131 -416,0 -758,102 -1013,296 -239,189 -360,427 -360,707 0,136 35,261 97,375 7,6 12,18 12,24 -92,-6 -131,-12 -155,-18 -108,-28 -188,-69 -233,-130 -51,-63 -75,-149 -75,-263 0,-97 18,-170 57,-222 41,-46 110,-73 200,-85l108 -11 81 -440 5 -170 -176 0c-275,0 -491,86 -655,245 -167,165 -251,399 -251,695 0,222 57,416 165,581 108,159 257,278 445,353 182,69 461,103 849,103l2238 0zm-1925 -1271c120,-85 330,-130 610,-130 261,0 455,45 581,130 143,103 159,194 159,251 0,110 -50,200 -165,280 -119,90 -320,137 -592,137 -275,0 -478,-47 -592,-131 -110,-81 -154,-167 -154,-274 -6,-63 11,-159 154,-263z"/>
    <polygon fill="#E6E7E8" fill-rule="nonzero" points="13149,86582 16899,87448 16899,86874 13149,86013 "/>
    <path fill="#E6E7E8" fill-rule="nonzero" d="M15821 88918l97 0 0 -592 -2712 0 0 626 1470 0c320,0 463,58 525,109 85,69 126,153 126,272 0,57 -12,98 -41,143 -28,39 -69,69 -126,85 -39,18 -135,41 -335,41l-1619 0 0 626 1636 0c233,0 409,-16 529,-46 132,-33 239,-84 320,-153 85,-69 153,-155 204,-268 51,-108 75,-228 75,-359 0,-159 -40,-314 -120,-440 -6,-16 -17,-27 -29,-45z"/>
   </g>
   <g>
    <path fill="#E6E7E8" fill-rule="nonzero" d="M19543 42625c-4309,0 -7801,3492 -7801,7805 0,3192 1914,5926 4654,7134l0 -2968c-1259,-957 -2090,-2457 -2090,-4166 0,-2888 2341,-5236 5241,-5236 2889,0 5236,2348 5236,5236 0,1710 -826,3209 -2090,4166l0 2968c2741,-1208 4655,-3943 4655,-7134 5,-4313 -3493,-7805 -7805,-7805z"/>
    <path fill="#E6E7E8" fill-rule="nonzero" d="M20984 54880c1914,-616 3315,-2388 3315,-4507 0,-2627 -2131,-4752 -4752,-4752 -2625,0 -4756,2125 -4756,4752 0,2119 1402,3892 3316,4507l0 -2780c-496,-410 -820,-1032 -820,-1727 0,-1247 1013,-2262 2261,-2262 1248,0 2256,1015 2256,2262 0,702 -318,1312 -819,1733l0 2774z"/>
    <path fill="#E6E7E8" fill-rule="nonzero" d="M25211 35136l-12706 0 0 2433 6149 0 0 4860 2154 0 0 -4860 4403 0 0 6171 2434 0 0 -6171c0,-1345 -1088,-2433 -2434,-2433z"/>
    <polygon fill="#E6E7E8" fill-rule="nonzero" points="39245,37759 36812,37070 36801,37070 39245,36397 39245,36062 39666,35942 39245,35942 39245,35594 35616,35594 35616,36238 37535,36238 35616,36773 35616,37320 37513,37862 35616,37862 35616,38506 39245,38506 39245,38152 39593,38152 39245,38055 "/>
    <path fill="#E6E7E8" fill-rule="nonzero" d="M37388 39161c-485,0 -900,119 -1243,358 -392,273 -586,643 -586,1094 0,450 194,815 576,1094 330,239 769,365 1292,365 376,0 713,-62 992,-188 284,-126 502,-302 655,-524 155,-223 227,-474 227,-741 0,-422 -170,-775 -506,-1055 -337,-268 -810,-404 -1408,-404zm51 2244c-409,0 -718,-80 -929,-239 -193,-155 -284,-332 -284,-554 0,-217 92,-399 284,-547 205,-160 496,-245 872,-245 439,0 763,80 968,239 194,148 284,331 284,559 0,141 -39,267 -130,386 -86,119 -205,211 -354,274 -204,80 -449,125 -712,125z"/>
    <path fill="#E6E7E8" fill-rule="nonzero" d="M35616 43833c0,308 62,565 182,757 125,200 337,364 633,484 279,119 620,178 1019,178 308,0 575,-35 804,-104 234,-68 427,-170 586,-302 159,-131 273,-296 335,-478 47,-138 69,-330 69,-581l0 -1088 -3629 0 0 1133zm2946 -484l0 427c0,239 -35,348 -57,405 -53,113 -155,205 -319,284 -171,80 -421,121 -736,121 -296,0 -553,-41 -764,-121 -136,-52 -239,-124 -296,-222 -63,-96 -90,-251 -90,-455l0 -439 2262 0z"/>
    <polygon fill="#E6E7E8" fill-rule="nonzero" points="35616,48277 36300,48277 36300,46595 37142,46595 37142,48111 37827,48111 37827,46595 38562,46595 38562,48215 39245,48215 39245,45941 35616,45941 "/>
    <polygon fill="#E6E7E8" fill-rule="nonzero" points="35616,50938 36300,50938 36300,49587 39245,49587 39245,48932 35616,48932 "/>
    <polygon fill="#E6E7E8" fill-rule="nonzero" points="30009,37013 33644,38181 33644,37503 31114,36734 31097,36729 31114,36722 33644,35976 33644,35276 30009,36432 30009,36687 29873,36722 30009,36756 "/>
    <polygon fill="#E6E7E8" fill-rule="nonzero" points="33644,38630 30009,38630 30009,40967 30698,40967 30698,39287 31542,39287 31542,40802 32232,40802 32232,39287 32961,39287 32961,40904 33644,40904 "/>
    <polygon fill="#E6E7E8" fill-rule="nonzero" points="33644,41634 30009,41634 30009,42272 32214,42272 30009,43480 30009,44084 33644,44084 33644,43445 31440,43445 33644,42238 "/>
    <path fill="#E6E7E8" fill-rule="nonzero" d="M30009 45998c0,308 62,564 189,764 125,194 337,359 627,484 278,113 627,176 1020,176 308,0 582,-35 810,-108 233,-68 427,-172 586,-297 160,-136 274,-296 337,-484 45,-136 67,-324 67,-575l0 -1094 -3635 0 0 1134zm2953 -478l0 428c0,233 -36,347 -57,404 -51,110 -155,205 -314,280 -176,80 -427,126 -741,126 -290,0 -547,-41 -758,-119 -142,-57 -239,-126 -302,-224 -62,-96 -91,-249 -91,-455l0 -439 2263 0z"/>
    <path fill="#E6E7E8" fill-rule="nonzero" d="M31787 47997c-484,0 -900,125 -1242,365 -393,274 -592,645 -592,1094 0,451 200,815 582,1094 330,239 769,365 1292,365 376,0 713,-63 992,-188 284,-124 501,-302 655,-523 155,-222 229,-473 229,-747 0,-416 -172,-769 -508,-1047 -337,-274 -809,-411 -1407,-411zm45 2250c-404,0 -717,-79 -923,-239 -187,-153 -284,-330 -284,-553 0,-216 92,-398 284,-547 200,-159 490,-245 866,-245 445,0 771,80 975,239 194,148 286,331 286,558 0,143 -47,268 -131,388 -86,120 -206,210 -354,268 -205,86 -450,131 -718,131z"/>
    <path fill="#E6E7E8" fill-rule="nonzero" d="M30009 52197l1488 0 0 275c0,125 -23,188 -35,222 -16,29 -57,86 -148,154 -57,39 -194,136 -530,308l-776 411 0 786 1123 -592c165,-86 320,-188 455,-302 12,-12 23,-18 29,-29 63,149 153,268 267,370 182,148 423,228 707,228 216,0 411,-45 575,-137 166,-85 292,-204 370,-359 74,-141 108,-347 108,-626l0 -1362 -3635 0 0 655zm2974 0l0 724c0,154 -33,268 -102,337 -68,69 -165,103 -296,103 -92,0 -165,-18 -233,-57 -62,-33 -108,-80 -131,-143 -29,-51 -51,-141 -51,-323l0 -639 814 0z"/>
   </g>
   <path fill="#E6E7E8" d="M55762 61817l0 23104c0,2888 -2363,5251 -5251,5251l-2990 0c-2888,0 -5251,-2363 -5251,-5251l0 -23104c0,-2888 2363,-5251 5251,-5251l2990 0c2888,0 5251,2363 5251,5251zm-12398 8107l0 8314 0 6683c0,2286 1871,4157 4157,4157l2990 0c2286,0 4157,-1871 4157,-4157l0 -6683c0,-2286 -1879,-4147 -4157,-4157l-2990 0c-2284,0 -4157,-1871 -4157,-4157zm5850 -6286c-10,-2 -19,-4 -29,-6 -68,-14 -135,-30 -199,-46l-3286 -814 0 -1899 6790 -1637 0 1816 -3639 758c-67,13 -135,24 -203,37 -59,11 -119,22 -178,33 41,8 81,16 122,24 61,12 124,24 181,39l3717 923 0 1548 -3715 922c-60,15 -122,27 -183,40 -41,9 -81,16 -122,24 59,11 118,22 177,33 68,13 135,25 207,38l3635 757 0 1817 -6790 -1637 0 -1895 3289 -822c64,-17 130,-31 195,-45 10,-2 20,-4 29,-6zm2801 5402c138,0 279,20 406,77 114,51 214,126 291,225 74,95 122,205 149,322 25,109 37,220 37,331 0,112 -12,224 -37,329 -26,117 -75,227 -149,322 -76,98 -175,173 -287,225 -127,60 -270,81 -409,81 -140,0 -280,-22 -408,-81 -113,-52 -213,-127 -289,-225 -72,-93 -121,-201 -150,-314 -29,-110 -40,-223 -40,-337 0,-114 12,-227 40,-337 29,-115 78,-222 151,-316 77,-100 178,-175 292,-226 128,-56 267,-76 405,-76zm-6314 1852l0 -1796 5032 0 0 1796 -5032 0zm-321 15193l0 -1864 5403 0 0 1864 -5403 0zm6742 -1924c143,0 291,21 423,80 118,53 220,130 300,232 76,98 126,212 154,333 26,115 39,232 39,349 0,118 -12,235 -39,346 -26,121 -78,235 -154,333 -79,102 -181,178 -297,232 -132,62 -280,84 -425,84 -146,0 -292,-23 -425,-84 -117,-54 -220,-131 -299,-233 -74,-96 -125,-208 -155,-325 -30,-116 -42,-234 -42,-353 0,-119 12,-239 42,-354 30,-119 80,-230 155,-327 79,-103 184,-180 302,-232 133,-59 278,-80 422,-80zm-1168 -5392l-1274 0 0 3899 -1646 0 0 -3899 -2655 0 0 -1855 7221 0 0 5925 -1646 0 0 -4070z"/>
   <path fill="#E6E7E8" d="M53969 37436c-1231,-1249 -2943,-2023 -4835,-2023 -3751,0 -6791,3040 -6791,6791 0,1902 777,3616 2037,4849l-429 430c-1366,-1342 -2215,-3212 -2215,-5279 0,-4086 3313,-7398 7398,-7398 2060,0 3923,841 5264,2200l-429 430zm995 4115l402 134c14,171 21,344 21,519 0,3454 -2800,6254 -6254,6254 -162,0 -322,-6 -481,-19l-154 -442c3029,-1031 5427,-3423 6465,-6448zm-2195 -3489l1060 12c334,379 622,799 858,1252 -525,4423 -4057,7923 -8495,8399 -420,-224 -811,-495 -1167,-805l8 -1125c41,1 83,1 124,1 4205,0 7613,-3409 7613,-7613 0,-40 0,-80 -1,-120zm-5910 -1119l978 -856c1325,-277 2731,-124 3966,461 129,524 197,1071 197,1635 0,3780 -3064,6844 -6844,6844 -590,0 -1163,-75 -1710,-215 -163,-356 -294,-729 -389,-1116l376 -968c535,203 1116,315 1723,315 2684,0 4859,-2176 4859,-4859 0,-380 -43,-750 -126,-1105 -263,-48 -513,-45 -755,-12 100,355 153,730 153,1117 0,2281 -1849,4130 -4130,4130 -831,0 -1605,-246 -2253,-668 38,-430 120,-847 241,-1247l630 -626c370,322 853,517 1383,517 1163,0 2106,-943 2106,-2106 0,-463 -150,-892 -404,-1240zm-609 1240c0,604 -490,1093 -1093,1093 -604,0 -1094,-490 -1094,-1093 0,-604 490,-1094 1094,-1094 604,0 1093,490 1093,1094z"/>
  </g>
  <path id="connector1pin" fill="#FFF39D" fill-rule="nonzero" d="M4312 34648c0,700 -576,1276 -1276,1276 -707,0 -1276,-576 -1276,-1276 0,-706 569,-1276 1276,-1276 707,0 1276,571 1276,1276zm-4307 -1276c700,0 1271,571 1271,1276 0,700 -570,1271 -1271,1271l0 792 5133 0 0 -4131 -5133 0 0 792z"/>
  <path id="connector2pin" fill="#FFF39D" fill-rule="nonzero" d="M4312 42864c0,706 -576,1276 -1276,1276 -707,0 -1276,-570 -1276,-1276 0,-707 569,-1276 1276,-1276 707,0 1276,569 1276,1276zm-4307 -1276c700,0 1271,569 1271,1276 0,700 -570,1276 -1271,1276l0 793 5133 0 0 -4137 -5133 0 0 792z"/>
  <path id="connector3pin" fill="#FFF39D" fill-rule="nonzero" d="M4312 51081c0,706 -576,1276 -1276,1276 -707,0 -1276,-570 -1276,-1276 0,-701 569,-1276 1276,-1276 707,0 1276,575 1276,1276zm-4307 -1276c700,6 1271,575 1271,1276 0,706 -570,1276 -1271,1276l0 792 5133 0 0 -4131 -5133 0 0 786z"/>
  <path id="connector4pin" fill="#FFF39D" fill-rule="nonzero" d="M4312 59296c0,707 -576,1276 -1276,1276 -707,0 -1276,-569 -1276,-1276 0,-700 569,-1276 1276,-1276 707,0 1276,576 1276,1276zm-4307 -1276c700,6 1271,576 1271,1276 0,707 -570,1276 -1271,1276l0 792 5133 0 0 -4131 -5133 0 0 786z"/>
  <path id="connector5pin" fill="#FFF39D" fill-rule="nonzero" d="M4312 67518c0,702 -576,1276 -1276,1276 -707,0 -1276,-575 -1276,-1276 0,-700 569,-1276 1276,-1276 707,0 1276,570 1276,1276zm-4307 -1276c700,0 1271,576 1271,1276 0,702 -570,1270 -1271,1276l0 786 5133 0 0 -4130 -5133 0 0 793z"/>
  <path id="connector6pin" fill="#FFF39D" fill-rule="nonzero" d="M4312 75734c0,700 -576,1276 -1276,1276 -707,0 -1276,-576 -1276,-1276 0,-706 569,-1276 1276,-1276 707,0 1276,570 1276,1276zm-4307 -1276c700,0 1271,570 1271,1276 0,700 -570,1271 -1271,1276l0 786 5133 0 0 -4131 -5133 0 0 792z"/>
  <path id="connector7pin" fill="#FFF39D" fill-rule="nonzero" d="M4312 83950c0,700 -576,1276 -1276,1276 -707,0 -1276,-576 -1276,-1276 0,-702 569,-1276 1276,-1276 707,0 1276,569 1276,1276zm-4307 -1276c700,5 1271,574 1271,1276 0,700 -570,1270 -1271,1276l0 786 5133 0 0 -4125 -5133 0 0 786z"/>
  <path id="connector8pin" fill="#FFF39D" fill-rule="nonzero" d="M4312 92167c0,700 -576,1276 -1276,1276 -707,0 -1276,-576 -1276,-1276 0,-702 569,-1276 1276,-1276 707,0 1276,569 1276,1276zm-4307 -1276c700,6 1271,575 1271,1276 0,700 -570,1276 -1271,1276l0 792 5133 0 0 -4131 -5133 0 0 786z"/>
  <path id="connector9pin" fill="#FFF39D" fill-rule="nonzero" d="M14470 99231l0 -3308 -4131 0 0 3308 792 0c0,-706 570,-1283 1276,-1283 700,0 1276,576 1276,1283l786 0z"/>
  <path id="connector10pin" fill="#FFF39D" fill-rule="nonzero" d="M22739 99231l0 -3308 -4131 0 0 3308 792 0c0,-706 570,-1283 1276,-1283 700,0 1276,576 1276,1283l786 0z"/>
  <path id="connector11pin" fill="#FFF39D" fill-rule="nonzero" d="M31008 99231l0 -3308 -4131 0 0 3308 792 0c0,-706 570,-1283 1276,-1283 700,0 1276,576 1276,1283l786 0z"/>
  <path id="connector12pin" fill="#FFF39D" fill-rule="nonzero" d="M39277 99231l0 -3308 -4131 0 0 3308 792 0c0,-706 570,-1283 1276,-1283 700,0 1276,576 1276,1283l786 0z"/>
  <path id="connector13pin" fill="#FFF39D" fill-rule="nonzero" d="M47546 99231l0 -3308 -4131 0 0 3308 792 0c0,-706 570,-1283 1276,-1283 700,0 1276,576 1276,1283l786 0z"/>
  <path id="connector14pin" fill="#FFF39D" fill-rule="nonzero" d="M55816 99231l0 -3308 -4131 0 0 3308 792 0c0,-706 570,-1283 1276,-1283 700,0 1276,576 1276,1283l786 0z"/>
  <path id="connector15pin" fill="#FFF39D" fill-rule="nonzero" d="M61841 92018c0,-700 576,-1276 1283,-1276 701,0 1270,576 1270,1276 0,701 -569,1276 -1270,1276 -706,0 -1283,-571 -1283,-1276zm4313 1276c-700,0 -1276,-575 -1276,-1276 0,-700 577,-1276 1276,-1276l0 -792 -5133 0 0 4136 5133 0 0 -792z"/>
  <path id="connector16pin" fill="#FFF39D" fill-rule="nonzero" d="M61841 83801c0,-706 576,-1276 1283,-1276 701,0 1270,571 1270,1276 0,702 -569,1276 -1270,1276 -706,0 -1283,-569 -1283,-1276zm4313 1276c-700,-6 -1276,-574 -1276,-1276 0,-700 577,-1276 1276,-1276l0 -792 -5133 0 0 4131 5133 0 0 -786z"/>
  <path id="connector17pin" fill="#FFF39D" fill-rule="nonzero" d="M61841 75581c0,-702 576,-1276 1283,-1276 701,0 1270,575 1270,1276 0,706 -569,1276 -1270,1276 -706,0 -1283,-571 -1283,-1276zm4313 1276c-700,0 -1276,-571 -1276,-1276 0,-702 577,-1272 1276,-1272l0 -792 -5133 0 0 4130 5133 0 0 -791z"/>
  <path id="connector18pin" fill="#FFF39D" fill-rule="nonzero" d="M61841 67370c0,-707 576,-1276 1283,-1276 701,0 1270,569 1270,1276 0,700 -569,1276 -1270,1276 -706,0 -1283,-576 -1283,-1276zm4313 1276c-700,-6 -1276,-576 -1276,-1276 0,-707 577,-1276 1276,-1276l0 -792 -5133 0 0 4131 5133 0 0 -786z"/>
  <path id="connector19pin" fill="#FFF39D" fill-rule="nonzero" d="M61841 59148c0,-702 576,-1276 1283,-1276 701,0 1270,575 1270,1276 0,700 -569,1276 -1270,1276 -706,0 -1283,-571 -1283,-1276zm4313 1276c-700,0 -1276,-576 -1276,-1276 0,-702 577,-1270 1276,-1276l0 -786 -5133 0 0 4131 5133 0 0 -792z"/>
  <path id="connector20pin" fill="#FFF39D" fill-rule="nonzero" d="M61841 50932c0,-700 576,-1276 1283,-1276 701,0 1270,576 1270,1276 0,701 -569,1276 -1270,1276 -706,0 -1283,-570 -1283,-1276zm4313 1276c-700,0 -1276,-575 -1276,-1276 0,-700 577,-1271 1276,-1276l0 -786 -5133 0 0 4131 5133 0 0 -792z"/>
  <path id="connector21pin" fill="#FFF39D" fill-rule="nonzero" d="M61841 42716c0,-700 576,-1276 1283,-1276 701,0 1270,577 1270,1276 0,702 -569,1276 -1270,1276 -706,0 -1283,-574 -1283,-1276zm4313 1276c-700,-6 -1276,-574 -1276,-1276 0,-700 577,-1270 1276,-1276l0 -786 -5133 0 0 4131 5133 0 0 -792z"/>
  <path id="connector22pin" fill="#FFF39D" fill-rule="nonzero" d="M61841 34500c0,-700 576,-1276 1283,-1276 701,0 1270,576 1270,1276 0,701 -569,1276 -1270,1276 -706,0 -1283,-575 -1283,-1276zm4313 1276c-700,-5 -1276,-575 -1276,-1276 0,-700 577,-1276 1276,-1276l0 -792 -5133 0 0 4132 5133 0 0 -787z"/>
 </g>
</svg>
